<svg xmlns="http://www.w3.org/2000/svg" width="957" height="355"><rect id="backgroundrect" width="100%" height="100%" x="0" y="0" fill="none" stroke="none"/><style>.st1{fill:#105cfb}</style><g class="currentLayer"><g id="svg_1"><path d="M309.7 57.6c.3 12.8-9.8 23.5-22.6 23.9-12.8.3-23.5-9.8-23.9-22.6-.3-12.8 9.8-23.5 22.6-23.8 12.8-.4 23.5 9.7 23.9 22.5z" id="svg_2" fill="#2be6d0"/><path class="st1" d="M177.4 354.8c-47.4 0-91.9-18.5-125.4-52S0 224.7 0 177.4C0 130 18.5 85.5 52 52S130.1 0 177.4 0c25.3 0 49.8 5.2 72.7 15.6 6.5 2.9 9.5 10.6 6.5 17.2-2.9 6.5-10.6 9.5-17.2 6.5C219.8 30.5 199 26 177.3 26c-40.4 0-78.5 15.8-107.1 44.4C41.6 99 25.8 137 25.8 177.5c0 40.4 15.8 78.5 44.4 107.1 28.6 28.6 66.6 44.4 107.1 44.4s78.5-15.8 107.1-44.4C313 256 328.8 218 328.8 177.5c0-26-6.7-51.7-19.4-74.2-3.5-6.2-1.3-14.2 4.9-17.7s14.2-1.3 17.7 4.9c14.9 26.4 22.7 56.4 22.7 86.9 0 47.4-18.5 91.9-52 125.4-33.4 33.5-77.9 52-125.3 52z" id="svg_3"/></g><g id="svg_4"><path class="st1" d="M216.3 215.2c0 29.2-23.7 50.4-52.9 50.4H87.8V89.2h70.1c28.5 0 51.7 20.7 51.7 48.9 0 15.4-6.8 28-17.9 36 14.8 7.8 24.6 22.2 24.6 41.1zm-99.5-98.8v46.4h41.1c12.9 0 22.7-10.1 22.7-23.2s-9.8-23.2-22.7-23.2h-41.1zm70.6 97.3c0-13.9-10.3-24.7-23.9-24.7h-46.6v49.4h46.6c13.5 0 23.9-10.9 23.9-24.7z" id="svg_5"/><path class="st1" d="M239.8 139.6H267v126h-27.2v-126z" id="svg_6"/></g><g id="svg_7"><path class="st1" d="M526 215.2c0 29.2-23.7 50.4-52.9 50.4h-75.6V89.1h70.1c28.5 0 51.7 20.7 51.7 48.9 0 15.4-6.8 28-17.9 36 14.7 7.9 24.6 22.3 24.6 41.2zm-99.6-98.8v46.4h41.1c12.9 0 22.7-10.1 22.7-23.2s-9.8-23.2-22.7-23.2h-41.1zm70.6 97.3c0-13.9-10.3-24.7-23.9-24.7h-46.6v49.4h46.6c13.5 0 23.9-10.9 23.9-24.7z" id="svg_8"/><path class="st1" d="M677.1 139.6v126h-27.2v-18.1c-9.6 13.4-24.4 21.4-44.1 21.4-34.3 0-62.8-29-62.8-66.3 0-37.6 28.5-66.3 62.8-66.3 19.7 0 34.5 8.1 44.1 21.2v-17.9h27.2zm-27.2 63c0-23.4-17.1-40.3-39.8-40.3-22.7 0-39.8 16.9-39.8 40.3s17.1 40.3 39.8 40.3c22.7 0 39.8-16.9 39.8-40.3z" id="svg_9"/><path class="st1" d="M820.2 188.2v77.4H793V191c0-19.2-11.1-29.2-28.2-29.2-17.9 0-32 10.6-32 36.3v67.5h-27.2v-126h27.2v16.1c8.3-13.1 21.9-19.4 39.1-19.4 28.2 0 48.3 19.1 48.3 51.9z" id="svg_10"/><path class="st1" d="M924.5 265.6l-51.7-58.2v58.2h-27.2V89.1h27.2v106.1l48.9-55.7H955l-55.4 61.8 57.5 64.3h-32.6z" id="svg_11"/></g></g></svg>